# xmcd CD database file
#
# Track frame offsets:
#	151
#	29958
#	69899
#	105540
#	127471
#	145588
#	182119
#
# Disc length: 2753 seconds
#
# Revision: 0
# Processed by: cddbd v1.5.1PL2 Copyright (c) Steve Scherf et al.
# Submitted via: CDex 1.51
#
DISCID=680abf07
DTITLE=Akosh S. Unit - kaloz 1
DYEAR=1900
DGENRE=Jazz
TTITLE0=elso resz
TTITLE1=masodik resz
TTITLE2=harmadik resz
TTITLE3=negyedik resz
TTITLE4=otodik resz
TTITLE5=hatodik resz
TTITLE6=H etedik resz
EXTD=
EXTT0=
EXTT1=
EXTT2=
EXTT3=
EXTT4=
EXTT5=
EXTT6=
PLAYORDER=
